<svg width="41" height="50" viewBox="0 0 41 50" fill="none" xmlns="http://www.w3.org/2000/svg">
<path d="M20.9463 6.97656C25.5468 6.97682 30.0375 10.645 33.4922 16.0615C36.9068 21.4154 38.9775 27.9868 38.9775 32.8652C38.9775 35.2701 38.4744 36.9094 37.6982 38.0615C36.928 39.2049 35.7892 40.0157 34.2383 40.5869C31.0125 41.7749 26.4458 41.793 20.9463 41.793C15.463 41.793 10.5089 41.779 6.9043 40.5723C5.1482 39.9843 3.8338 39.1482 2.94824 37.9893C2.07032 36.8402 1.50005 35.2256 1.5 32.8652C1.5 28.0408 3.88555 21.4893 7.65527 16.1162C11.4636 10.6882 16.3098 6.97656 20.9463 6.97656Z" stroke="#FF4B00" stroke-width="3"/>
<path d="M19.4856 23.1172C20.4181 23.1172 21.2714 23.4691 21.8899 23.9326C22.1983 24.1638 22.4374 24.4144 22.595 24.6475C22.7575 24.8878 22.8097 25.0723 22.8098 25.1797C22.8098 25.2457 22.7948 25.2837 22.72 25.3369C22.6167 25.4102 22.4232 25.4856 22.1028 25.542C21.464 25.6544 20.5598 25.6562 19.4856 25.6562C18.4144 25.6562 17.4348 25.6551 16.7219 25.541C16.3634 25.4836 16.1284 25.4049 15.9944 25.3213C15.8849 25.2528 15.885 25.213 15.885 25.1797C15.8851 25.0932 15.9366 24.9179 16.1252 24.6719C16.306 24.4362 16.579 24.1811 16.925 23.9453C17.62 23.4719 18.5488 23.1172 19.4856 23.1172Z" stroke="#FF4B00"/>
<path d="M13.1737 42.0547V48.3828" stroke="#FF4B00" stroke-width="3" stroke-linecap="round"/>
<path d="M13.0795 48.3828L9.96533 48.3828" stroke="#FF4B00" stroke-width="3" stroke-linecap="round"/>
<path d="M29.3733 48.3828L26.2592 48.3828" stroke="#FF4B00" stroke-width="3" stroke-linecap="round"/>
<path d="M29.3733 42.0547V48.3828" stroke="#FF4B00" stroke-width="3" stroke-linecap="round"/>
<circle cx="14.7123" cy="20.6562" r="1.63281" fill="black"/>
<circle cx="25.173" cy="20.6562" r="1.63281" fill="black"/>
<path d="M20.484 0C19.4291 -2.65147e-06 16.8033 3.15728 16.8033 4.95117C16.8033 5.01011 16.8079 5.06731 16.8102 5.12305C16.8079 5.1521 16.8034 5.1806 16.8033 5.20898C16.8033 5.67212 16.9306 6.03458 17.1569 6.31836C17.3385 6.57336 17.5796 6.74359 17.8688 6.85254C18.6394 7.20986 19.7615 7.29588 21.0114 7.2959C23.3354 7.2959 25.1735 7.00288 25.1735 5.20898C25.1734 3.41505 24.5208 0.257889 23.2662 0.257813C22.7215 0.257812 21.9385 0.531774 21.1041 0.962891C20.9395 0.385571 20.7334 0.000206343 20.484 0Z" fill="#FF0000"/>
<path d="M19.1191 28.4727C18.6428 28.4719 17.4581 27.1218 17.458 26.3545C17.458 26.3273 17.4607 26.3009 17.4619 26.2754C17.4612 26.2648 17.459 26.2545 17.459 26.2441C17.459 26.0685 17.5056 25.928 17.5869 25.8135C17.5894 25.8095 17.5922 25.8057 17.5947 25.8018C17.6021 25.7918 17.6083 25.781 17.6162 25.7715C17.7009 25.6578 17.8154 25.5848 17.9521 25.5381C18.2996 25.3895 18.8006 25.3516 19.3584 25.3516C20.4072 25.3516 21.2363 25.4767 21.2363 26.2441C21.2363 27.0115 20.9419 28.3615 20.376 28.3623C20.13 28.3623 19.7762 28.2442 19.3994 28.0596C19.325 28.3072 19.2319 28.4727 19.1191 28.4727Z" fill="#FF0000"/>
</svg>
